<?xml version="1.0" encoding="UTF-8" standalone="no"?>
<svg
   xmlns:dc="http://purl.org/dc/elements/1.1/"
   xmlns:cc="http://creativecommons.org/ns#"
   xmlns:rdf="http://www.w3.org/1999/02/22-rdf-syntax-ns#"
   xmlns:svg="http://www.w3.org/2000/svg"
   xmlns="http://www.w3.org/2000/svg"
   xmlns:xlink="http://www.w3.org/1999/xlink"
   xmlns:sodipodi="http://sodipodi.sourceforge.net/DTD/sodipodi-0.dtd"
   xmlns:inkscape="http://www.inkscape.org/namespaces/inkscape"
   inkscape:version="1.0 (4035a4fb49, 2020-05-01)"
   sodipodi:docname="man.svg"
   xml:space="preserve"
   style="enable-background:new 0 0 188.148 188.148;"
   viewBox="0 0 188.148 188.148"
   y="0px"
   x="0px"
   id="Capa_1"
   version="1.1"><metadata
   id="metadata95"><rdf:RDF><cc:Work
       rdf:about=""><dc:format>image/svg+xml</dc:format><dc:type
         rdf:resource="http://purl.org/dc/dcmitype/StillImage" /></cc:Work></rdf:RDF></metadata><defs
   id="defs93" /><sodipodi:namedview
   inkscape:current-layer="g58"
   inkscape:window-maximized="1"
   inkscape:window-y="-6"
   inkscape:window-x="-6"
   inkscape:cy="94.073997"
   inkscape:cx="94.073997"
   inkscape:zoom="3.4547272"
   showgrid="false"
   id="namedview91"
   inkscape:window-height="860"
   inkscape:window-width="1368"
   inkscape:pageshadow="2"
   inkscape:pageopacity="0"
   guidetolerance="10"
   gridtolerance="10"
   objecttolerance="10"
   borderopacity="1"
   bordercolor="#666666"
   pagecolor="#ffffff" />
<g
   id="g58">
	<g
   id="g56">
		<defs
   id="defs3">
			<circle
   r="94.074"
   cy="94.074"
   cx="94.074"
   id="SVGID_1_" />
		</defs>
		<use
   id="use5"
   style="overflow:visible;fill:#EB6D4A;"
   xlink:href="#SVGID_1_" />
		<clipPath
   id="SVGID_2_">
			<use
   id="use7"
   style="overflow:visible;"
   xlink:href="#SVGID_1_" />
		</clipPath>
		<path
   id="path10"
   clip-path="url(#SVGID_2_)"
   d="M135.938,52.784V84.05c0,0.453-0.011,0.905-0.021,1.357    c-0.02,0.936-0.072,1.871-0.154,2.796c-0.02,0.319-0.052,0.637-0.093,0.956c-0.134,1.326-0.318,2.632-0.555,3.928    c-0.083,0.432-0.165,0.853-0.258,1.275c-0.01,0.092-0.03,0.175-0.051,0.257c-0.083,0.432-0.186,0.854-0.288,1.275    c-0.041,0.226-0.103,0.452-0.154,0.679c-0.052,0.195-0.103,0.391-0.164,0.586c-0.217,0.843-0.463,1.666-0.721,2.488    c-0.123,0.391-0.246,0.771-0.38,1.162c-0.011,0.041-0.031,0.082-0.041,0.123c-0.124,0.349-0.247,0.699-0.37,1.048    c-0.041,0.103-0.082,0.205-0.124,0.319c-0.123,0.329-0.246,0.658-0.38,0.987c-0.154,0.401-0.318,0.792-0.483,1.183    c-0.144,0.35-0.298,0.699-0.452,1.049c-0.02,0.062-0.052,0.113-0.072,0.174c-0.175,0.37-0.339,0.741-0.514,1.1    c-0.175,0.38-0.36,0.761-0.556,1.142c-0.37,0.75-0.771,1.501-1.172,2.231c-0.185,0.329-0.37,0.658-0.556,0.987    c-1.583,2.725-3.341,5.285-5.253,7.649c-0.258,0.339-0.524,0.668-0.802,0.987c-0.381,0.462-0.772,0.915-1.162,1.357    c-0.35,0.391-0.699,0.781-1.059,1.162c-0.987,1.059-1.995,2.067-3.023,3.013c-0.205,0.206-0.422,0.391-0.638,0.586    c-0.349,0.319-0.698,0.627-1.059,0.925c-0.277,0.247-0.565,0.483-0.854,0.72c-0.74,0.606-1.48,1.192-2.23,1.737    c-0.309,0.237-0.628,0.463-0.946,0.679c-0.514,0.37-1.038,0.72-1.563,1.059c-0.288,0.195-0.586,0.38-0.885,0.555    c-1.049,0.648-2.107,1.244-3.156,1.758c-0.257,0.133-0.514,0.257-0.771,0.38c-0.258,0.123-0.524,0.247-0.802,0.37    c-0.34,0.154-0.679,0.298-1.018,0.432c-0.134,0.062-0.268,0.113-0.401,0.154c-0.4,0.165-0.812,0.319-1.213,0.452    c-0.504,0.185-1.018,0.339-1.521,0.483c-0.35,0.103-0.709,0.195-1.059,0.277c-0.021,0.011-0.041,0.021-0.072,0.021    c-0.35,0.082-0.699,0.165-1.049,0.226c-0.093,0.021-0.184,0.041-0.277,0.051c-0.288,0.051-0.576,0.103-0.864,0.134    c-0.411,0.062-0.822,0.113-1.233,0.134c-0.143,0.02-0.277,0.031-0.422,0.031c-0.328,0.021-0.657,0.031-0.977,0.031h-0.03    c-0.319,0-0.638-0.01-0.956-0.031c-0.124,0-0.247-0.01-0.371-0.031c-0.287-0.01-0.586-0.042-0.894-0.083    c-0.062,0-0.134-0.01-0.195-0.02c-0.381-0.051-0.761-0.113-1.152-0.185c-0.328-0.051-0.657-0.124-0.997-0.206    c-1.758-0.401-3.567-1.007-5.397-1.82c-1.563-0.689-3.146-1.521-4.719-2.488c-0.792-0.483-1.584-0.997-2.365-1.542    c-0.391-0.278-0.781-0.555-1.172-0.843c-1.224-0.895-2.437-1.871-3.63-2.92c-0.328-0.298-0.657-0.596-0.986-0.905    c-0.329-0.298-0.658-0.606-0.977-0.904c-0.803-0.771-1.584-1.573-2.345-2.406c-0.298-0.318-0.596-0.647-0.895-0.987    c-0.822-0.925-1.624-1.881-2.385-2.879c-0.299-0.36-0.576-0.73-0.854-1.1c-1.038-1.377-2.025-2.817-2.951-4.308    c-0.246-0.401-0.493-0.813-0.729-1.213c-0.288-0.483-0.565-0.976-0.843-1.47c-1.028-1.851-1.975-3.773-2.797-5.758    c-0.123-0.288-0.247-0.576-0.35-0.863c-0.165-0.37-0.309-0.751-0.442-1.121c-0.205-0.545-0.4-1.09-0.586-1.635    c-0.185-0.545-0.359-1.1-0.534-1.655c-0.165-0.535-0.319-1.069-0.463-1.614c-0.165-0.576-0.318-1.162-0.452-1.758    c-0.011-0.062-0.031-0.123-0.041-0.185c-0.195-0.822-0.37-1.655-0.524-2.498c-0.206-1.111-0.37-2.242-0.494-3.383    c-0.051-0.36-0.082-0.72-0.113-1.08c-0.041-0.38-0.071-0.751-0.092-1.131c-0.052-0.689-0.083-1.388-0.104-2.087    c-0.01-0.453-0.021-0.905-0.021-1.357V52.784c0-23.102,18.723-41.834,41.825-41.855h0.041c3.188,0,6.292,0.359,9.273,1.028    c2.725,0.617,5.347,1.501,7.835,2.622c3.393,1.522,6.549,3.475,9.387,5.809c2.385,1.954,4.555,4.154,6.446,6.58    C132.607,34.083,135.938,43.038,135.938,52.784z"
   style="clip-path:url(#SVGID_2_);fill:#ECC19C;" />
		<path
   id="path12"
   clip-path="url(#SVGID_2_)"
   d="M148.613,200.741v0.01H39.538v-0.01c0-6.158,1.018-12.091,2.91-17.612    c0.339-0.997,0.709-1.984,1.11-2.961v-0.01c0.4-0.977,0.822-1.933,1.274-2.879c1.8-3.794,4.041-7.341,6.642-10.59    c0.658-0.812,1.326-1.604,2.016-2.365c0.339-0.391,0.699-0.771,1.059-1.151c0.36-0.37,0.72-0.74,1.09-1.11    c1.841-1.84,3.814-3.526,5.892-5.079c1.038-0.771,2.087-1.491,3.177-2.19c1.09-0.689,2.2-1.347,3.331-1.964    c0.021-0.02,0.041-0.02,0.041-0.02c0.442-0.236,0.874-0.493,1.306-0.761c0.854-0.514,1.696-1.069,2.499-1.665    c0.411-0.288,0.802-0.586,1.192-0.905c0.925-0.74,1.819-1.532,2.673-2.365c0.277-0.277,0.556-0.555,0.833-0.843    c0.575-0.597,1.12-1.224,1.645-1.861c0.258-0.308,0.515-0.627,0.751-0.946c0.247-0.318,0.483-0.647,0.72-0.977    c1.83-2.55,3.3-5.356,4.38-8.349c1.306-3.64,2.015-7.557,2.015-11.649l7.948,0.041l8.173,0.041c0,4.04,0.689,7.916,1.964,11.515    c1.06,3.002,2.529,5.809,4.329,8.359c1.871,2.652,4.102,5.017,6.631,7.042c0.381,0.309,0.761,0.607,1.142,0.884    c0.37,0.278,0.75,0.545,1.141,0.802c0.083,0.062,0.154,0.113,0.237,0.165c0.37,0.247,0.74,0.494,1.131,0.72    c0.421,0.257,0.854,0.514,1.285,0.751c0.071,0.02,0.134,0.051,0.185,0.093c0.905,0.504,1.8,1.028,2.674,1.573    c0.421,0.257,0.843,0.524,1.254,0.823c0.854,0.555,1.687,1.141,2.498,1.758c0,0.011,0.011,0.011,0.011,0.011h0.01    c2.077,1.552,4.041,3.248,5.881,5.079C142.496,172.015,148.613,185.648,148.613,200.741z"
   style="clip-path:url(#SVGID_2_);fill:#ECC19C;" />
		<path
   id="path14"
   clip-path="url(#SVGID_2_)"
   d="M148.614,200.743H39.539c0-6.159,1.019-12.091,2.91-17.612    c0.339-0.998,0.709-1.984,1.11-2.961c-0.011-0.011,0-0.011,0-0.011c0.391-0.977,0.822-1.933,1.274-2.878    c1.8-3.794,4.041-7.341,6.642-10.59c0.658-0.813,1.327-1.604,2.016-2.365c0.339-0.391,0.699-0.771,1.059-1.151    c0.36-0.37,0.72-0.74,1.09-1.11c1.841-1.84,3.814-3.527,5.892-5.079c1.038-0.771,2.087-1.491,3.177-2.19    c1.09-0.699,2.2-1.357,3.331-1.974c0.021-0.02,0.041-0.01,0.041-0.01v-0.01c0.442-0.247,0.874-0.494,1.306-0.751    c1.285-0.781,2.52-1.645,3.671-2.591c0.01,0.01,0.01,0.01,0.021,0.02c5.325,5.449,12.738,8.831,20.964,8.852h0.082    c8.225,0,15.669-3.393,21.015-8.842l0.011-0.01c0.729,0.606,1.49,1.172,2.272,1.696c0.082,0.061,0.154,0.113,0.236,0.164    c0.37,0.247,0.75,0.483,1.131,0.72c0.422,0.257,0.854,0.504,1.285,0.74c0.072,0.02,0.123,0.061,0.185,0.092    c0.905,0.504,1.8,1.028,2.674,1.583c0.421,0.257,0.843,0.524,1.254,0.823c0.854,0.545,1.687,1.141,2.498,1.758h0.021    c2.088,1.563,4.051,3.259,5.881,5.089C142.497,172.017,148.614,185.65,148.614,200.743z"
   style="clip-path:url(#SVGID_2_);fill:#C7D4E2;" />
		<path
   id="path16"
   clip-path="url(#SVGID_2_)"
   d="M135.938,84.05c0,0.453-0.011,0.905-0.021,1.357    c-0.02,0.936-0.072,1.871-0.154,2.796c-0.02,0.319-0.052,0.637-0.093,0.956c-0.134,1.326-0.318,2.632-0.555,3.928    c-0.083,0.432-0.165,0.853-0.258,1.275c-0.01,0.092-0.03,0.175-0.051,0.257c-0.083,0.432-0.186,0.854-0.288,1.275    c-0.052,0.247-0.113,0.483-0.186,0.72c-0.03,0.185-0.082,0.37-0.133,0.545c-0.217,0.843-0.463,1.666-0.721,2.488    c-0.123,0.391-0.246,0.771-0.38,1.162c-0.011,0.041-0.031,0.082-0.041,0.123c-0.124,0.349-0.247,0.699-0.37,1.048    c-0.041,0.103-0.082,0.205-0.124,0.319c-0.123,0.329-0.246,0.658-0.38,0.987c-0.154,0.401-0.318,0.792-0.483,1.183    c-0.144,0.35-0.298,0.699-0.452,1.049c-0.02,0.062-0.052,0.113-0.072,0.174c-0.175,0.37-0.339,0.741-0.514,1.1    c-0.175,0.38-0.36,0.761-0.556,1.142c-0.37,0.75-0.771,1.501-1.172,2.231c-0.185,0.329-0.37,0.658-0.556,0.987    c-1.583,2.725-3.341,5.285-5.253,7.649c-0.258,0.339-0.524,0.668-0.802,0.987c-0.381,0.462-0.772,0.915-1.162,1.357    c-0.35,0.391-0.699,0.781-1.059,1.162c-0.987,1.059-1.995,2.067-3.023,3.013c-0.205,0.206-0.422,0.391-0.638,0.586    c-0.349,0.319-0.698,0.627-1.059,0.925c-0.277,0.247-0.565,0.483-0.854,0.72c-0.74,0.606-1.48,1.192-2.23,1.737    c-0.309,0.237-0.628,0.463-0.946,0.679c-0.514,0.37-1.038,0.72-1.563,1.059c-0.288,0.195-0.586,0.38-0.885,0.555    c-1.049,0.648-2.107,1.244-3.156,1.758c-0.257,0.133-0.514,0.257-0.771,0.38c-0.258,0.123-0.524,0.247-0.802,0.37    c-0.34,0.154-0.679,0.298-1.018,0.432c-0.134,0.062-0.268,0.113-0.401,0.154c-0.4,0.165-0.812,0.319-1.213,0.452    c-0.504,0.185-1.018,0.339-1.521,0.483c-0.35,0.103-0.709,0.195-1.059,0.277c-0.021,0.011-0.041,0.021-0.072,0.021    c-0.35,0.082-0.699,0.165-1.049,0.226c-0.093,0.021-0.184,0.041-0.277,0.051c-0.288,0.051-0.576,0.103-0.864,0.134    c-0.411,0.062-0.822,0.113-1.233,0.134c-0.143,0.02-0.277,0.031-0.422,0.031c-0.328,0.021-0.657,0.031-0.977,0.031h-0.03    c-0.319,0-0.638-0.01-0.956-0.031c-0.124,0-0.247-0.01-0.371-0.031c-0.287-0.01-0.586-0.042-0.894-0.083    c-0.062,0-0.134-0.01-0.195-0.02c-0.381-0.051-0.761-0.113-1.152-0.185c-0.328-0.051-0.657-0.124-0.997-0.206    c-1.758-0.401-3.567-1.007-5.397-1.82c-1.563-0.689-3.146-1.521-4.719-2.488c-0.792-0.473-1.573-0.987-2.365-1.542    c-0.391-0.278-0.781-0.555-1.172-0.843c-1.224-0.895-2.437-1.871-3.63-2.92c-0.328-0.298-0.657-0.596-0.986-0.905    c-0.329-0.298-0.658-0.606-0.977-0.904c-0.803-0.771-1.584-1.573-2.345-2.406c-0.298-0.318-0.596-0.647-0.895-0.987    c-0.822-0.925-1.624-1.881-2.385-2.879c-0.299-0.36-0.576-0.73-0.854-1.1c-1.038-1.377-2.025-2.817-2.951-4.308    c-0.246-0.401-0.493-0.813-0.729-1.213c-0.288-0.483-0.565-0.976-0.843-1.47c-1.028-1.851-1.975-3.773-2.797-5.758    c-0.123-0.288-0.247-0.576-0.35-0.863c-0.165-0.37-0.309-0.751-0.442-1.121c-0.205-0.545-0.4-1.09-0.586-1.635    c-0.185-0.545-0.359-1.1-0.534-1.655c-0.165-0.535-0.319-1.069-0.463-1.614c-0.165-0.576-0.318-1.162-0.452-1.758    c-0.011-0.062-0.031-0.123-0.041-0.185c-0.195-0.822-0.37-1.655-0.524-2.498c-0.206-1.111-0.37-2.242-0.494-3.383    c-0.051-0.36-0.082-0.72-0.113-1.08c-0.041-0.38-0.071-0.751-0.092-1.131c-0.052-0.689-0.083-1.388-0.104-2.087    c-0.01-0.453-0.021-0.905-0.021-1.357l6.684,13.14l11.484,5.007l13.581,1.224l10.076,0.915h0.062l9.428,0.854l21.005,1.892    L135.938,84.05z"
   style="clip-path:url(#SVGID_2_);fill:#543E36;" />
		<path
   id="path18"
   clip-path="url(#SVGID_2_)"
   d="M127.023,26.968c-2.046,4.637-4.709,8.945-7.855,12.852    c-0.185,0.227-0.37,0.453-0.565,0.679c-6.446,7.762-14.897,13.798-24.562,17.324c-2.54,0.936-5.161,1.696-7.855,2.262    c-1.799,0.38-3.629,0.679-5.49,0.895c-2.139,0.236-4.318,0.36-6.528,0.36c-2.529,0-5.007-0.165-7.443-0.483    c-2.386-0.298-4.72-0.74-7.002-1.336c-1.306-0.329-2.581-0.709-3.846-1.131c-1.244-0.411-2.457-0.864-3.66-1.357v-4.246    c0-23.102,18.723-41.834,41.825-41.855h0.041c3.188,0,6.292,0.359,9.273,1.028c2.725,0.617,5.347,1.501,7.835,2.622    c3.393,1.522,6.549,3.475,9.387,5.809C122.962,22.341,125.132,24.542,127.023,26.968z"
   style="clip-path:url(#SVGID_2_);fill:#543E36;" />
		<path
   id="path20"
   clip-path="url(#SVGID_2_)"
   d="M135.938,52.784v8.235c-7.136-5.521-13.047-12.502-17.314-20.48    c-0.01-0.01-0.01-0.031-0.021-0.041c-4.194-7.834-6.796-16.625-7.412-25.92c3.393,1.522,6.549,3.475,9.387,5.809    c2.385,1.954,4.555,4.154,6.446,6.58C132.607,34.083,135.938,43.038,135.938,52.784z"
   style="clip-path:url(#SVGID_2_);fill:#543E36;" />
		<path
   id="path22"
   clip-path="url(#SVGID_2_)"
   d="M57.12,56.013c-0.441,0.771-0.843,1.563-1.244,2.375    c-0.153,0.318-0.308,0.658-0.462,0.987c-2.025,4.503-3.044,8.924-3.188,12.914c0,0.113-0.011,0.236-0.011,0.35V56.517    c0-0.576,0.021-1.142,0.021-1.697C53.861,55.242,55.485,55.653,57.12,56.013z"
   style="clip-path:url(#SVGID_2_);fill:#543E36;" />
		<path
   id="path24"
   clip-path="url(#SVGID_2_)"
   d="M131.054,56.013c0.622,1.093,1.177,2.213,1.71,3.361    c2.088,4.643,3.11,9.178,3.198,13.268V56.512c0-0.567-0.021-1.134-0.021-1.688C134.318,55.243,132.697,55.648,131.054,56.013z"
   style="clip-path:url(#SVGID_2_);fill:#543E36;" />
		<path
   id="path26"
   clip-path="url(#SVGID_2_)"
   d="M130.972,60.167c0-0.175-0.134-0.329-0.309-0.35    c-1.48-0.226-8.143-1.142-15.309-1.142c-8.133,0-18.63,2.55-20.46,2.55H93.27c-0.854,0-3.588-0.555-7.084-1.141    c-4.02-0.679-9.037-1.409-13.376-1.409c-5.243,0-10.22,0.494-13.088,0.843c-1.049,0.124-1.82,0.236-2.221,0.298    c-0.175,0.021-0.309,0.175-0.309,0.35l-0.082,4.369c0,0.154,0.093,0.288,0.236,0.35l0.493,0.175    c0.73,0.278,0.669,13.448,4.596,16.738c2.334,1.943,4.411,3.053,13.16,3.053c5.069,0,8.256-1.367,11.279-5.449    c2.18-2.93,4.112-9.86,4.112-9.86c0.586-2.858,2.714-3.084,3.054-3.105c0.021,0,0.041,0,0.041,0c0.071,0,2.468,0.041,3.095,3.105    c0,0,1.933,6.93,4.112,9.86c3.022,4.082,6.21,5.449,11.278,5.449c8.75,0,10.826-1.11,13.16-3.053    c3.928-3.29,3.866-16.46,4.596-16.738l0.494-0.175c0.143-0.062,0.236-0.195,0.236-0.35L130.972,60.167z M86.875,75.753    c-1.285,3.043-4.606,6.971-9.284,7.207c-14.034,0.709-14.682-3.208-15.587-6.313c-0.915-3.105-1.151-5.83-0.792-8.935    c0.37-3.105,1.152-4.925,2.561-5.84c0.606-0.401,1.265-0.761,2.951-1.018c1.511-0.226,3.845-0.36,7.731-0.36    c2.251,0,4.359,0.175,6.24,0.483c4.997,0.802,8.369,2.499,8.369,4.174C89.064,66.294,88.776,71.249,86.875,75.753z     M126.159,76.647c-0.904,3.105-1.552,7.022-15.586,6.313c-4.678-0.236-7.999-4.164-9.284-7.207    c-1.902-4.503-2.189-9.459-2.189-10.6c0-2.303,6.395-4.658,14.609-4.658c8.215,0,9.53,0.617,10.683,1.378    c1.408,0.915,2.189,2.735,2.56,5.84C127.312,70.818,127.075,73.543,126.159,76.647z"
   style="clip-path:url(#SVGID_2_);fill:#1A1A1A;" />
		<g
   id="g32"
   clip-path="url(#SVGID_2_)"
   style="clip-path:url(#SVGID_2_);">
			<path
   id="path28"
   d="M94.123,90.65l-0.011,10.138l-0.01,3.547v2.786l-0.011,9.253v0.01l-0.01-0.01h-0.011l-0.03-0.021     L53.604,95.771c-0.011-0.062-0.031-0.123-0.041-0.185c-0.195-0.822-0.37-1.655-0.524-2.498c-0.206-1.111-0.37-2.242-0.494-3.383     c-0.051-0.36-0.082-0.72-0.113-1.08c-0.041-0.38-0.071-0.751-0.092-1.131c-0.052-0.689-0.083-1.388-0.104-2.087     c-0.01-0.453-0.021-0.905-0.021-1.357V71.764c0,0.175,0.011,0.35,0.011,0.524c0.082,2.971,0.555,6.241,1.47,9.582     c0.71,2.57,1.594,4.945,2.622,7.063v0.01c2.694,5.604,6.303,9.407,9.623,10.024c0.206,0.031,0.422,0.051,0.628,0.072     c1.285,0.144,2.632,0.226,4.02,0.226c5.243,0,9.901-4.215,12.831-5.922c0.021-0.01,0.041-0.021,0.062-0.031     c0.154-0.093,0.309-0.185,0.442-0.278c0.041-0.031,0.082-0.051,0.123-0.072c2.468-1.409,6.025-2.303,9.994-2.313H94.123z"
   style="fill:#543E36;" />
			<path
   id="path30"
   d="M135.947,71.764l-0.01,12.286c0,3.085-0.288,6.107-0.822,9.038     c-0.217,1.172-0.463,2.333-0.751,3.485l-9.49,13.705l-30.782,6.097h-0.01l-0.011,0.01v-0.01l-0.03-25.727h0.082     c3.969,0.01,7.536,0.905,10.004,2.313c0.041,0.021,0.071,0.041,0.113,0.072c0.144,0.093,0.298,0.185,0.452,0.278     c0.01,0.01,0.03,0.021,0.051,0.031c2.941,1.707,7.588,5.925,12.832,5.925c1.388,0,2.734-0.082,4.019-0.226     c0.216-0.021,0.422-0.041,0.638-0.072c3.311-0.617,6.93-4.421,9.613-10.024v-0.01c1.027-2.118,1.912-4.493,2.621-7.063     c0.926-3.393,1.409-6.703,1.471-9.716C135.947,72.021,135.947,71.897,135.947,71.764z"
   style="fill:#543E36;" />
		</g>
		<ellipse
   id="ellipse34"
   clip-path="url(#SVGID_2_)"
   ry="3.17"
   rx="10.255"
   cy="103.955"
   cx="94.074"
   style="clip-path:url(#SVGID_2_);fill:#ECC19C;" />
		<g
   id="g40"
   clip-path="url(#SVGID_2_)"
   style="clip-path:url(#SVGID_2_);">
			<path
   id="path36"
   d="M64.131,155.174v56.558h-4.369v-53.37c0.586-0.473,1.172-0.936,1.769-1.378     C62.384,156.347,63.247,155.75,64.131,155.174z"
   style="fill:#435363;" />
			<polygon
   id="polygon38"
   points="124.021,155.185 124.021,200.741 124.021,211.732 128.39,211.732 128.39,200.741      128.39,158.372    "
   style="fill:#435363;" />
		</g>
		<g
   id="g54"
   clip-path="url(#SVGID_2_)"
   style="clip-path:url(#SVGID_2_);">
			<g
   id="g46">
				<polygon
   id="polygon42"
   points="82.113,151.713 94.074,166.049 106.036,151.713     "
   style="fill:#141720;" />
				<path
   id="path44"
   d="M94.074,225.437h-7.073l5.11-65.8c0.215,0.837,3.712,0.837,3.927,0l5.11,65.8H94.074z"
   style="fill:#141720;" />
			</g>
			<g
   id="g52">
				<path
   id="path48"
   d="M94.07,151.638l-0.03,0.051l-0.011,0.021l-4.966,8.338l-4.637,7.772l-12.554-17.447      c0.401-0.288,0.802-0.596,1.183-0.915c0.01,0.01,0.01,0.01,0.021,0.021c2.518-2.005,4.76-4.359,6.621-6.991l14.343,9.13      L94.07,151.638z"
   style="fill:#E7ECF2;" />
				<path
   id="path50"
   d="M116.278,150.373l-12.554,17.447l-4.637-7.772l-4.977-8.338l-0.041-0.072l14.436-9.191      c1.871,2.652,4.102,5.017,6.631,7.042C115.518,149.797,115.897,150.096,116.278,150.373z"
   style="fill:#E7ECF2;" />
			</g>
		</g>
	</g>
</g>
<g
   id="g60">
</g>
<g
   id="g62">
</g>
<g
   id="g64">
</g>
<g
   id="g66">
</g>
<g
   id="g68">
</g>
<g
   id="g70">
</g>
<g
   id="g72">
</g>
<g
   id="g74">
</g>
<g
   id="g76">
</g>
<g
   id="g78">
</g>
<g
   id="g80">
</g>
<g
   id="g82">
</g>
<g
   id="g84">
</g>
<g
   id="g86">
</g>
<g
   id="g88">
</g>
<path
   id="path920"
   d="M 66.402626,98.846345 C 64.626201,98.545859 63.444202,97.899973 61.717687,96.286337 57.084722,91.956267 53.403182,83.312088 52.57735,74.82501 c -0.394901,-4.058395 0.320747,-8.500212 2.149944,-13.344061 1.075237,-2.847309 1.168738,-2.932474 2.713501,-2.47158 1.184365,0.353366 1.2275,0.398292 0.546515,0.569209 -0.621372,0.155954 -0.768808,0.400562 -0.924031,1.533041 -0.312939,2.283135 -0.215789,3.366104 0.358637,3.997877 0.410774,0.451783 0.66497,1.584773 1.041914,4.643965 0.868141,7.04565 2.007286,10.441374 4.129319,12.309264 2.299203,2.023839 5.882508,2.893331 11.92384,2.893331 5.606755,0 8.266476,-0.907 11.009839,-3.754505 1.994157,-2.069859 3.325646,-4.635483 4.891382,-9.425114 1.307813,-4.000645 2.055936,-5.056263 3.583414,-5.056263 1.733454,0 2.364291,0.794103 3.506564,4.414091 2.706992,8.578761 6.028482,12.499817 11.461242,13.530118 3.56059,0.675252 10.83273,0.204569 13.75981,-0.890591 4.23126,-1.583118 5.81901,-4.796622 6.96435,-14.09533 0.38168,-3.098802 0.6157,-4.110315 1.06509,-4.603665 0.49252,-0.540708 0.56005,-0.946591 0.46632,-2.802739 -0.0603,-1.193758 -0.2112,-2.272069 -0.33538,-2.396247 -0.42577,-0.425763 -5.84667,-0.94662 -11.939,-1.147136 -6.63179,-0.218271 -9.66969,10e-4 -16.91652,1.221181 -7.632444,1.285078 -7.708262,1.290645 -10.988729,0.806831 -1.665747,-0.24567 -3.151025,-0.522317 -3.30062,-0.614772 -0.149595,-0.09245 1.017901,-0.530576 2.594439,-0.973602 9.603554,-2.698713 18.43144,-8.056109 25.6899,-15.590472 1.40875,-1.462304 2.59233,-2.617336 2.63017,-2.566738 0.0378,0.0506 0.7685,1.262167 1.62369,2.692374 2.24188,3.749337 5.36705,7.785823 8.80901,11.377788 2.67547,2.792069 3.11355,3.401444 4.02065,5.592767 2.0761,5.015335 2.89479,9.66714 2.47754,14.077418 -0.79865,8.441581 -4.45425,17.090519 -9.06078,21.437299 -2.21307,2.088292 -3.59166,2.646449 -7.05805,2.857629 -4.31863,0.263104 -6.46276,-0.502065 -12.61973,-4.503542 -4.86062,-3.158961 -7.343366,-3.92079 -12.777593,-3.92079 -5.431844,0 -8.026367,0.795354 -12.74979,3.908456 -6.509907,4.29053 -9.669179,5.204301 -14.921581,4.315843 z"
   style="fill:#e2a176;stroke:#ffe6d5;stroke-width:0.289458" /><path
   id="path922"
   d="m 108.96066,82.554384 c -5.23281,-1.491335 -8.48711,-6.567863 -9.501062,-14.821106 -0.291576,-2.373336 -0.272702,-2.669512 0.212129,-3.328772 1.870183,-2.543027 8.497283,-3.981315 16.952253,-3.679168 6.48843,0.231871 7.97072,0.756601 9.24004,3.270968 1.17216,2.321914 1.34674,8.161432 0.35401,11.841809 -1.46682,5.438031 -3.63433,6.724729 -11.73721,6.967549 -2.92348,0.08761 -4.59863,0.01135 -5.52016,-0.25128 z"
   style="fill:#e2a176;stroke:#ffe6d5;stroke-width:0.289458" /><path
   id="path924"
   d="m 69.614758,82.614626 c -2.418116,-0.353914 -5.443443,-1.84135 -6.262099,-3.07883 -0.339713,-0.51351 -0.923928,-2.011457 -1.298257,-3.328772 -0.966716,-3.402008 -0.966351,-9.128732 7.38e-4,-11.587008 1.155824,-2.938027 2.997844,-3.797965 7.164298,-3.344616 1.411442,0.153577 4.736416,0.199666 7.388831,0.102418 5.383922,-0.197395 7.323088,0.100742 9.9214,1.525364 2.277059,1.248483 2.537448,1.786615 2.197106,4.540638 -0.944206,7.640458 -3.432788,12.259679 -7.749814,14.384944 -1.836471,0.904092 -2.070563,0.945259 -5.697938,1.002031 -2.080532,0.03256 -4.629451,-0.06471 -5.664265,-0.216169 z"
   style="fill:#e2a176;stroke:#ffe6d5;stroke-width:0.289458" /><path
   id="path926"
   d="m 89.070921,106.52052 c -1.159671,-0.21018 -2.722747,-0.68688 -3.473502,-1.05935 -1.160918,-0.57596 -1.365009,-0.80362 -1.365009,-1.52268 0,-0.71168 0.205745,-0.94906 1.300191,-1.50009 1.914456,-0.96388 4.629119,-1.41296 8.541396,-1.41296 3.912278,0 6.626943,0.44908 8.541393,1.41296 1.09445,0.55103 1.30019,0.78841 1.30019,1.50009 0,0.71803 -0.20403,0.94672 -1.35357,1.51717 -2.791982,1.3855 -9.012705,1.8765 -13.491089,1.06486 z"
   style="fill:#e2a176;stroke:#ffe6d5;stroke-width:0.289458" /><path
   id="path928"
   d="m 87.271724,147.14098 c -3.741251,-2.39137 -6.90478,-4.44465 -7.030066,-4.56285 -0.125286,-0.1182 0.321776,-1.11538 0.993469,-2.21595 0.671694,-1.10057 1.567104,-2.81565 1.9898,-3.81129 0.422697,-0.99564 0.828017,-1.86973 0.900712,-1.94242 0.07269,-0.0727 1.298763,0.24288 2.724597,0.70128 5.368587,1.72597 9.06185,1.72663 14.444024,0.003 1.5502,-0.49658 2.84995,-0.8604 2.88834,-0.8085 0.0384,0.0519 0.37283,0.85683 0.74319,1.78873 0.37037,0.9319 1.27722,2.69904 2.01522,3.92697 l 1.34183,2.23259 -6.34696,4.03314 c -3.490822,2.21823 -6.687813,4.25151 -7.104418,4.5184 -0.756761,0.48481 -0.763783,0.48122 -7.559738,-3.86267 z"
   style="fill:#e2a176;stroke:#ffe6d5;stroke-width:0.289458" /></svg>
