<?xml version="1.0" encoding="UTF-8" standalone="no"?>
<svg
   xmlns:dc="http://purl.org/dc/elements/1.1/"
   xmlns:cc="http://creativecommons.org/ns#"
   xmlns:rdf="http://www.w3.org/1999/02/22-rdf-syntax-ns#"
   xmlns:svg="http://www.w3.org/2000/svg"
   xmlns="http://www.w3.org/2000/svg"
   xmlns:sodipodi="http://sodipodi.sourceforge.net/DTD/sodipodi-0.dtd"
   xmlns:inkscape="http://www.inkscape.org/namespaces/inkscape"
   inkscape:version="1.0 (4035a4fb49, 2020-05-01)"
   sodipodi:docname="support-article.svg"
   version="1.1"
   width="512"
   viewBox="0 0 512 512"
   height="512"
   enable-background="new 0 0 512 512"
   id="Capa_1">
  <metadata
     id="metadata65">
    <rdf:RDF>
      <cc:Work
         rdf:about="">
        <dc:format>image/svg+xml</dc:format>
        <dc:type
           rdf:resource="http://purl.org/dc/dcmitype/StillImage" />
        <dc:title></dc:title>
      </cc:Work>
    </rdf:RDF>
  </metadata>
  <defs
     id="defs63" />
  <sodipodi:namedview
     inkscape:current-layer="g58"
     inkscape:window-maximized="1"
     inkscape:window-y="-8"
     inkscape:window-x="-8"
     inkscape:cy="281.69878"
     inkscape:cx="63.075458"
     inkscape:zoom="1.1739077"
     showgrid="false"
     id="namedview61"
     inkscape:window-height="1017"
     inkscape:window-width="1920"
     inkscape:pageshadow="2"
     inkscape:pageopacity="0"
     guidetolerance="10"
     gridtolerance="10"
     objecttolerance="10"
     borderopacity="1"
     bordercolor="#666666"
     pagecolor="#ffffff" />
  <g
     id="g58">
    <path
       id="path2"
       fill="#365e7d"
       d="m128.951 40.012 23.378-.712c4.792-.146 6.959-6.06 3.396-9.268l-14.887-13.403c-6.496-5.849-2.359-16.629 6.383-16.629h59.438 100.69c39.656 0 71.803 32.147 71.803 71.803v101.391h-244.296v-83.342c0-6.41-1.51-12.73-4.409-18.448l-9.271-18.288c-2.991-5.898 1.166-12.902 7.775-13.104z" />
    <path
       id="path4"
       fill="#2b4d66"
       d="m307.348 0h-22.308c39.656 0 71.803 32.147 71.803 71.803v101.391h22.308v-101.391c0-39.656-32.147-71.803-71.803-71.803z" />
    <path
       id="path6"
       fill="#61a2f9"
       d="m399.298 511.866h-286.596c-4.174 0-7.557-3.384-7.557-7.557v-144.816c0-55.31 44.838-100.148 100.148-100.148h101.414c55.31 0 100.148 44.838 100.148 100.148v144.816c0 4.174-3.383 7.557-7.557 7.557z" />
    <path
       id="path8"
       fill="#5490f9"
       d="m306.707 259.345h-28.349c55.31 0 100.148 44.838 100.148 100.148v152.373h20.792c4.174 0 7.557-3.384 7.557-7.557v-144.816c0-55.31-44.838-100.148-100.148-100.148z" />
    <path
       id="path10"
       fill="#f6f1f1"
       d="m256 336.696-27.894 20.356c-2.605 1.901-6.305.749-7.371-2.294l-33.946-96.882 20.343-19.906 13.767 37.93z" />
    <path
       id="path12"
       fill="#f6f1f1"
       d="m256 336.696 27.894 20.356c2.605 1.901 6.305.749 7.371-2.294l33.946-96.882-20.343-19.906-13.767 37.93z" />
    <path
       style="fill:#793300;fill-opacity:1"
       id="path14"
       fill="#e2a770"
       d="m256 336.696 35.1-60.795h-70.2z" />
    <path
       style="fill:#a04500;fill-opacity:1"
       id="path16"
       fill="#f1d0a5"
       d="m256 294.008c-53.851 0-97.506-43.655-97.506-97.506v-84.432c0-6.956 1.884-13.407 5.139-18.921 10.147-17.188 33.333-21.056 49.187-8.93 29.094 22.252 60.882 29.418 96.049 17.658 21.047-7.038 43.603 7.38 44.598 29.55.025.561.038 1.125.038 1.691v63.384c.001 53.851-43.654 97.506-97.505 97.506z" />
    <g
       id="g20">
      <path
         style="fill:#843800;fill-opacity:1"
         id="path18"
         fill="#f1b986"
         d="m353.468 131.427c-.996-22.171-23.551-36.589-44.598-29.55-.183.061-.364.114-.547.174 12.167 4.29 21.552 15.255 22.186 29.376.025.561.038 1.125.038 1.691v63.384c0 49.967-37.586 91.148-86.027 96.83 3.766.442 7.595.676 11.479.676 53.851 0 97.506-43.655 97.506-97.506v-63.384c.001-.567-.011-1.13-.037-1.691z" />
    </g>
    <path
       style="fill:#964000;fill-opacity:1"
       id="path36"
       fill="#e2a770"
       d="m158.494 187.404h-15.634c-10.846 0-19.639-8.793-19.639-19.639 0-10.846 8.793-19.639 19.639-19.639h15.634z" />
    <g
       id="g40">
      <path
         id="path38"
         fill="#2b4d66"
         d="m358.654 243.257h-66.338c-4.266 0-7.724-3.458-7.724-7.724s3.458-7.724 7.724-7.724h66.338c3.069 0 5.565-2.496 5.565-5.564v-37c0-4.266 3.458-7.724 7.724-7.724s7.724 3.458 7.724 7.724v37c.001 11.586-9.427 21.012-21.013 21.012z" />
    </g>
    <path
       id="path42"
       fill="#365e7d"
       d="m293.453 247.381h-20.221c-5.225 0-9.461-4.236-9.461-9.461v-4.31c0-5.225 4.236-9.461 9.461-9.461h20.221c5.225 0 9.461 4.236 9.461 9.461v4.31c0 5.226-4.236 9.461-9.461 9.461z" />
    <path
       id="path44"
       fill="#365e7d"
       d="m362.065 512h-212.13l-18.805-100.881c-1.827-9.803 5.696-18.858 15.668-18.858h218.404c9.972 0 17.495 9.055 15.668 18.858z" />
    <path
       id="path46"
       fill="#2b4d66"
       d="m365.202 392.26h-20.917c9.972 0 17.495 9.055 15.668 18.858l-18.805 100.882h20.917l18.805-100.882c1.827-9.803-5.696-18.858-15.668-18.858z" />
    <circle
       id="circle48"
       r="21.947"
       fill="#f6f1f1"
       cy="471.689"
       cx="256" />
    <path
       id="path50"
       fill="#dae4ea"
       d="m256 449.742c-2.918 0-5.697.581-8.244 1.615 8.033 3.26 13.703 11.129 13.703 20.332s-5.671 17.071-13.703 20.332c2.547 1.034 5.326 1.615 8.244 1.615 12.121 0 21.947-9.826 21.947-21.947s-9.826-21.947-21.947-21.947z" />
    <path
       id="path52"
       fill="#f6f1f1"
       d="m356.596 392.26h-52.785v-16.782c0-4.989 4.045-9.034 9.034-9.034h34.716c4.989 0 9.034 4.045 9.034 9.034v16.782z" />
    <path
       id="path54"
       fill="#61a2f9"
       d="m353.506 195.543h18.437c14.528 0 26.306-11.777 26.306-26.306v-2.945c0-14.528-11.777-26.306-26.306-26.306h-18.437z" />
    <path
       id="path56"
       fill="#5490f9"
       d="m371.943 139.987h-18.437v.005c14.431.114 26.095 11.843 26.095 26.3v2.945c0 14.457-11.664 26.187-26.095 26.3v.005h18.437c14.528 0 26.306-11.777 26.306-26.306v-2.945c0-14.527-11.778-26.304-26.306-26.304z" />
  </g>
</svg>
