<?xml version="1.0" encoding="UTF-8" standalone="no"?>
<svg
   xmlns:dc="http://purl.org/dc/elements/1.1/"
   xmlns:cc="http://creativecommons.org/ns#"
   xmlns:rdf="http://www.w3.org/1999/02/22-rdf-syntax-ns#"
   xmlns:svg="http://www.w3.org/2000/svg"
   xmlns="http://www.w3.org/2000/svg"
   xmlns:sodipodi="http://sodipodi.sourceforge.net/DTD/sodipodi-0.dtd"
   xmlns:inkscape="http://www.inkscape.org/namespaces/inkscape"
   inkscape:version="1.0 (4035a4fb49, 2020-05-01)"
   sodipodi:docname="user.svg"
   xml:space="preserve"
   style="enable-background:new 0 0 496.158 496.158;"
   viewBox="0 0 496.158 496.158"
   y="0px"
   x="0px"
   id="Layer_1"
   version="1.1"><metadata
   id="metadata95"><rdf:RDF><cc:Work
       rdf:about=""><dc:format>image/svg+xml</dc:format><dc:type
         rdf:resource="http://purl.org/dc/dcmitype/StillImage" /></cc:Work></rdf:RDF></metadata><defs
   id="defs93" /><sodipodi:namedview
   inkscape:current-layer="Layer_1"
   inkscape:window-maximized="1"
   inkscape:window-y="-6"
   inkscape:window-x="-6"
   inkscape:cy="248.07899"
   inkscape:cx="248.07899"
   inkscape:zoom="1.3100666"
   showgrid="false"
   id="namedview91"
   inkscape:window-height="860"
   inkscape:window-width="1368"
   inkscape:pageshadow="2"
   inkscape:pageopacity="0"
   guidetolerance="10"
   gridtolerance="10"
   objecttolerance="10"
   borderopacity="1"
   bordercolor="#666666"
   pagecolor="#ffffff" />
<path
   id="path2"
   d="M248.082,0.003C111.07,0.003,0,111.063,0,248.085c0,137.001,111.07,248.07,248.082,248.07  c137.006,0,248.076-111.069,248.076-248.07C496.158,111.062,385.088,0.003,248.082,0.003z"
   style="fill:#337180;" />
<path
   id="path4"
   d="M394.818,382.733c-7.312-27.279-69.907-49.333-147.073-49.333s-139.095,22.054-146.407,49.333  c-3.259,12.158-6.962,35.192-10.126,57.525c42.747,34.934,97.357,55.897,156.87,55.897c59.509,0,114.116-20.963,156.862-55.896  C401.78,417.926,398.077,394.891,394.818,382.733z"
   style="fill:#261D17;" />
<polygon
   id="polygon6"
   points="247.829,316.996 208.306,322.246 210.167,335.412 247.787,363.485 285.991,335.412   287.852,322.246 "
   style="fill:#969899;" />
<path
   id="path8"
   d="M247.829,316.996l-37.662,18.417c0,0,16.828,28.073,37.62,28.073s38.204-28.073,38.204-28.073  L247.829,316.996z"
   style="fill:#7F3E09;" />
<path
   id="path10"
   d="M247.788,352.746c-20.422,0-30.632-8.469-34.931-13.567l35.298,50.9l35.771-51.793  C279.95,343.21,269.457,352.746,247.788,352.746z M212.857,339.179l-2.612-3.767C210.245,335.412,211.008,336.986,212.857,339.179z   M283.927,338.286c1.384-1.713,1.984-2.873,1.984-2.873L283.927,338.286z"
   style="fill:#261D17;" />
<path
   id="path12"
   d="M286.969,282.118h-77.78c12.136,36.588,0.978,53.294,0.978,53.294l26.912,17.334h22l26.912-17.333  C285.991,335.412,274.833,318.706,286.969,282.118z"
   style="fill:#E2A176;" />
<g
   id="g18">
	<path
   id="path14"
   d="M287.852,322.246l-39.794,30.5c0,0,34.03,6.009,34.198,5.842l23.488-20.796L287.852,322.246z"
   style="fill:#F3FAFF;" />
	<path
   id="path16"
   d="M208.306,322.246l-17.894,15.547l23.489,20.796c0.168,0.167,34.157-5.842,34.157-5.842   L208.306,322.246z"
   style="fill:#F3FAFF;" />
</g>
<path
   id="path20"
   d="M248.08,61.579c-48.741,0-88.254,21.167-88.254,113.596c0,31.266,6.19,55.765,15.462,74.673  c20.396,41.598,55.7,56.136,72.792,56.136s52.396-14.538,72.79-56.136c9.271-18.908,15.462-43.407,15.462-74.673  C336.332,82.746,296.819,61.579,248.08,61.579z"
   style="fill:#F4B382;" />
<g
   id="g26">
	<path
   id="path22"
   d="M349.668,153.14c0,0,8.013-15.536-12.382-29.046c0,0,10.197-2.025,11.653,2.703   c0,0-5.099-24.992-20.394-31.747c0,0,6.556-2.026,15.295,6.755c0,0-3.641-18.913-25.49-24.992c0,0,4.369-2.026,11.652,1.352   c0,0-5.826-12.159-24.035-16.212c0,0-1.457-6.078,6.555-5.403c0,0-16.022-7.43-31.317-8.106c0,0,5.099-10.806,13.838-10.806   c0,0-21.122-6.079-35.688,2.025c0,0-8.012-3.377-2.913-6.079c0,0-39.33-1.351-41.515,19.589c0,0-10.925-0.676-20.393-5.404   c0,0-9.469,6.755-0.729,14.86c0,0-22.578,0.676-32.775,16.887c0,0,5.099-2.026,11.653-1.351c0,0-17.479,8.78-19.665,23.641   c0,0,5.098-2.026,10.925-1.352c0,0-10.196,6.079-14.566,18.237c0,0,4.37-1.351,10.925-2.025c0,0-22.578,17.562-22.578,42.553   c0,0,8.74-13.509,13.838-13.509c0,0-2.914,21.614,2.914,45.931c0,0,3.641-11.482,7.283-10.807c0,0-0.729,18.912,10.925,31.746   c0,0,0-43.904,8.011-44.581c0,0,4.371,6.08,9.469,10.133c0,0-9.469-53.36,13.839-57.414c0,0,7.283,39.853,35.688,45.256   c0,0-9.468-28.369-8.739-39.176c0,0,30.59,14.184,40.059,42.553c0,0,3.641-15.535-1.457-39.176c0,0,15.295,8.104,13.838,35.124   c0,0,11.653-4.729,12.382-20.264c0,0,9.468,14.859,5.099,30.395c0,0,2.186,3.377,6.555-4.053c0,0,17.654,8.703,16.654,37.149   c0,0,18.456-23.446,12.75-47.281c0,0,5.229,12.834,4.5,21.615c0,0,4.697-19.589-0.4-42.554   C340.929,140.306,347.483,145.709,349.668,153.14z"
   style="fill:#261D17;" />
	<path
   id="path24"
   d="M212.079,178.976c-16.753,0-30.333,2.929-30.333,23.847c0,13.171,7.531,26.358,30.333,26.358   c16.751,0,30.332-13.187,30.332-26.358C242.411,189.653,228.83,178.976,212.079,178.976z M212.079,223.988   c-18.084,0-24.058-10.459-24.058-20.905c0-16.591,10.771-18.914,24.058-18.914c13.286,0,24.057,8.468,24.057,18.914   S225.365,223.988,212.079,223.988z"
   style="fill:#261D17;" />
</g>
<path
   id="path28"
   d="M212.079,184.17c-13.287,0-24.058,2.323-24.058,18.914c0,10.446,5.974,20.905,24.058,20.905  c13.286,0,24.057-10.459,24.057-20.905S225.365,184.17,212.079,184.17z"
   style="fill:#F4C4A4;" />
<path
   id="path30"
   d="M212.079,184.17c-13.287,0-24.058,2.323-24.058,18.914c0,8.76,4.205,17.524,16.225,20.127  l14.396-38.322C216.555,184.424,214.355,184.17,212.079,184.17z"
   style="fill:#F4CCB0;" />
<path
   id="path32"
   d="M218.642,184.889l-14.396,38.322c2.314,0.501,4.913,0.777,7.833,0.777  c13.286,0,24.057-10.459,24.057-20.905C236.136,194.428,228.737,187.136,218.642,184.889z"
   style="fill:#F4C4A4;" />
<g
   id="g40">
	<path
   id="path34"
   d="M187.619,190.714l-11.666-12.667c-1.123-1.219-3.021-1.298-4.239-0.174   c-1.219,1.123-1.297,3.02-0.175,4.239l11.666,12.667c0.592,0.643,1.398,0.968,2.208,0.968c0.727,0,1.455-0.262,2.031-0.793   C188.663,193.83,188.741,191.933,187.619,190.714z"
   style="fill:#261D17;" />
	<path
   id="path36"
   d="M325.111,177.873c-1.218-1.124-3.116-1.045-4.239,0.174l-11.666,12.667   c-1.122,1.219-1.044,3.116,0.175,4.239c0.576,0.531,1.305,0.793,2.031,0.793c0.81,0,1.616-0.325,2.208-0.968l11.666-12.667   C326.408,180.893,326.33,178.996,325.111,177.873z"
   style="fill:#261D17;" />
	<path
   id="path38"
   d="M284.079,178.976c-16.751,0-30.332,10.677-30.332,23.847c0,13.171,13.581,26.358,30.332,26.358   c22.802,0,30.333-13.187,30.333-26.358C314.412,181.905,300.832,178.976,284.079,178.976z M284.079,223.988   c-13.286,0-24.057-10.459-24.057-20.905s10.771-18.914,24.057-18.914c13.287,0,24.058,2.323,24.058,18.914   C308.137,213.529,302.163,223.988,284.079,223.988z"
   style="fill:#261D17;" />
</g>
<path
   id="path42"
   d="M284.079,184.17c-13.286,0-24.057,8.468-24.057,18.914s10.771,20.905,24.057,20.905  c18.084,0,24.058-10.459,24.058-20.905C308.137,186.493,297.366,184.17,284.079,184.17z"
   style="fill:#F4C4A4;" />
<path
   id="path44"
   d="M284.079,184.17c-2.276,0-4.476,0.254-6.563,0.719c-10.095,2.247-17.493,9.539-17.493,18.195  c0,8.641,7.372,17.284,17.438,20.015l14.472-38.521C289.47,184.273,286.83,184.17,284.079,184.17z"
   style="fill:#F4CCB0;" />
<path
   id="path46"
   d="M291.933,184.578l-14.472,38.521c2.104,0.571,4.321,0.89,6.618,0.89c2.92,0,5.519-0.276,7.833-0.777  c12.02-2.603,16.225-11.368,16.225-20.127C308.137,189.928,301.361,185.746,291.933,184.578z"
   style="fill:#F4C4A4;" />
<g
   id="g52">
	<path
   id="path48"
   d="M261.276,195.705h-26.403c-0.242,0,4.793,10.417,4.988,10.417l18.949-0.001   C259.007,206.12,261.521,195.705,261.276,195.705z"
   style="fill:#261D17;" />
	<path
   id="path50"
   d="M257.145,206.246c-2.618-1.846-5.792-3.667-9.173-3.667c-2.577,0-5.031,1.385-7.212,2.489   c-3.427,1.732-3.43,11.156-3.43,11.156c1.955-4.083,6.135-6.72,10.642-6.72c4.507,0,8.686,2.638,10.642,6.72   C258.614,216.224,259.653,208.014,257.145,206.246z"
   style="fill:#261D17;" />
</g>
<g
   id="g58">
	<path
   id="path54"
   d="M161.396,178.019c-8.438,1.443-14.856,5.077-10.096,32.922s10.673,29.141,19.112,27.698   L161.396,178.019z"
   style="fill:#F4B382;" />
	<path
   id="path56"
   d="M334.86,178.019l-9.016,60.62c8.438,1.443,14.35,0.148,19.111-27.698   C349.717,183.096,343.298,179.462,334.86,178.019z"
   style="fill:#F4B382;" />
</g>
<g
   id="g60">
</g>
<g
   id="g62">
</g>
<g
   id="g64">
</g>
<g
   id="g66">
</g>
<g
   id="g68">
</g>
<g
   id="g70">
</g>
<g
   id="g72">
</g>
<g
   id="g74">
</g>
<g
   id="g76">
</g>
<g
   id="g78">
</g>
<g
   id="g80">
</g>
<g
   id="g82">
</g>
<g
   id="g84">
</g>
<g
   id="g86">
</g>
<g
   id="g88">
</g>
<path
   id="path920"
   d="m 240.12153,304.93047 c -14.95483,-3.15878 -32.45702,-13.71522 -45.01364,-27.14995 -9.30239,-9.95292 -15.48851,-19.47971 -21.94403,-33.79439 -1.82477,-4.04631 -3.31944,-6.92757 -3.32147,-6.40279 -0.006,1.48836 -5.40108,1.14815 -8.12411,-0.51226 -4.35859,-2.65773 -8.08445,-13.24252 -10.53458,-29.92767 -1.49098,-10.15342 -1.50485,-15.36221 -0.0539,-20.24794 1.30306,-4.38787 2.90168,-6.10183 7.00782,-7.51345 l 2.903,-0.99801 1.64562,10.67588 c 1.72682,11.20263 4.42573,18.36076 8.29239,21.9933 l 1.7248,1.62036 0.50437,-9.01348 c 0.27741,-4.95741 0.70669,-10.84707 0.95397,-13.08814 l 0.4496,-4.07466 3.72426,3.66826 3.72426,3.66826 -0.47911,5.74964 c -1.10656,13.27941 4.64439,23.37069 15.73749,27.61485 6.48858,2.4825 17.44843,2.82456 24.25536,0.75702 6.49855,-1.97388 13.5735,-6.97603 16.65616,-11.7763 2.76999,-4.31338 5.54265,-6.01156 9.81521,-6.01156 4.46742,0 5.81446,0.84997 10.03073,6.32932 7.08773,9.21104 16.82201,13.40345 29.47638,12.69505 14.80048,-0.82855 23.15703,-6.90182 26.28698,-19.10456 0.85113,-3.3183 1.08208,-6.38394 0.76468,-10.15031 l -0.45475,-5.39614 3.31586,-3.25428 3.31587,-3.25427 1.21842,5.21547 c 0.67013,2.86851 1.44661,7.58558 1.7255,10.48238 l 0.50708,5.2669 1.4138,-1.83196 c 0.7776,-1.00758 2.76129,-4.40817 4.40821,-7.55686 2.43503,-4.65542 3.17483,-7.11523 3.9602,-13.16727 0.8717,-6.71733 1.12025,-7.4421 2.55131,-7.43952 2.45839,0.004 6.34034,2.7264 7.73525,5.42384 1.91026,3.69404 2.2301,12.80843 0.79239,22.58066 -2.49798,16.97895 -6.16607,27.3291 -10.65561,30.06669 -2.63856,1.6089 -7.82184,1.9716 -8.28578,0.57978 -0.16227,-0.48683 -0.92881,0.80128 -1.70341,2.86245 -6.83756,18.19445 -20.50815,36.70902 -35.87238,48.58328 -15.91904,12.30304 -35.25365,18.62063 -48.45415,15.83238 z"
   style="fill:#e2a176;stroke:#ffe6d5;stroke-width:0.76332" /><path
   id="path922"
   d="m 239.71512,192.31813 c -2.10151,-3.90227 -6.72443,-7.79041 -12.53325,-10.54118 -4.72528,-2.23766 -5.70968,-2.41143 -15.06001,-2.65853 -7.32416,-0.19355 -11.25616,0.0563 -14.67733,0.93281 -5.01625,1.2851 -10.6042,4.38543 -11.33455,6.28867 -0.3481,0.90715 -1.21029,0.42879 -3.84219,-2.13173 -1.86635,-1.81573 -4.04999,-4.20967 -4.85253,-5.31986 -1.35929,-1.88036 -1.38047,-2.24156 -0.30939,-5.27734 2.08625,-5.91304 2.37049,-5.91952 7.65012,-0.17449 2.61841,2.84922 4.9655,4.98488 5.21575,4.74592 0.25026,-0.23896 0.0786,-3.50216 -0.38137,-7.25154 -1.28629,-10.48407 -0.48529,-29.32425 1.50958,-35.50655 1.89716,-5.87947 5.25805,-10.84906 8.45527,-12.50241 3.48427,-1.80179 4.40517,-1.48955 4.98464,1.69009 0.81055,4.44762 5.63139,15.99332 9.10271,21.80055 4.40055,7.36176 10.84798,13.62516 17.39928,16.90264 5.80443,2.90384 9.51277,3.55947 8.73982,1.54519 -2.97275,-7.74686 -8.07347,-29.02508 -8.09754,-33.77976 l -0.0165,-3.26372 2.48079,1.27491 c 13.66281,7.02148 27.87089,21.53827 34.19788,34.94093 2.6337,5.57906 2.87604,5.86183 3.27085,3.8166 1.46969,-7.6135 1.19405,-20.74903 -0.69508,-33.12335 l -0.5244,-3.43494 2.71635,2.57731 c 5.74833,5.45409 9.69604,15.96902 9.69604,25.8259 0,6.60298 0.71632,6.98225 5.32437,2.81914 3.91332,-3.53544 5.84036,-6.7049 7.12238,-11.71438 l 1.03153,-4.03073 1.71712,3.99154 c 2.71654,6.31478 4.08447,14.15853 3.39387,19.46054 -0.80878,6.20921 -0.82623,6.05195 0.70417,6.34668 0.77825,0.14987 2.31929,-0.77082 3.61903,-2.1622 l 2.26363,-2.42322 2.43025,2.04492 c 1.33664,1.12471 3.4155,3.2847 4.6197,4.79999 l 2.18946,2.75507 -2.94672,2.94672 -2.94673,2.94673 -2.94018,-2.6931 c -4.83188,-4.42583 -8.90207,-5.40175 -22.5286,-5.40175 -11.67895,0 -11.89662,0.0309 -16.88721,2.39545 -5.80956,2.75262 -10.43213,6.64094 -12.53325,10.54248 l -1.4595,2.71013 h -6.90438 -6.90437 z"
   style="fill:#e2a176;stroke:#ffe6d5;stroke-width:0.76332" /></svg>
